<?xml version="1.0" encoding="UTF-8"?>
<svg xmlns="http://www.w3.org/2000/svg" xmlns:xlink="http://www.w3.org/1999/xlink" version="1.1" viewBox="0 0 1788.9 518.5">
  <defs>
    <style>
      .cls-1, .cls-2, .cls-3 {
        fill: none;
      }

      .cls-2, .cls-3 {
        stroke: #f0d000;
        stroke-miterlimit: 10;
        stroke-width: 30.7px;
      }

      .cls-4, .cls-5 {
        isolation: isolate;
      }

      .cls-5 {
        font-family: BrittanySignatureRegular, 'Brittany Signature';
        font-size: 120.6px;
      }

      .cls-3 {
        stroke-linecap: square;
      }

      .cls-6 {
        clip-path: url(#clippath);
      }
    </style>
    <clipPath id="clippath">
      <rect class="cls-1" x="153.5" y="158.2" width="1481.9" height="202"/>
    </clipPath>
  </defs>
  <!-- Generator: Adobe Illustrator 28.6.0, SVG Export Plug-In . SVG Version: 1.2.0 Build 709)  -->
  <g>
    <g id="Layer_1">
      <g id="Layer_1-2" data-name="Layer_1">
        <g id="Layer_1-2">
          <g id="Layer_1-2-2" data-name="Layer_1-2">
            <g id="Layer_1-2-2">
              <g class="cls-6">
                <g>
                  <g>
                    <g>
                      <line class="cls-3" x1="404.4" y1="230.8" x2="427.9" y2="230.8"/>
                      <line class="cls-3" x1="404.4" y1="173.9" x2="483.7" y2="173.9"/>
                    </g>
                    <g>
                      <line class="cls-3" x1="1369.7" y1="230.8" x2="1346.2" y2="230.8"/>
                      <line class="cls-3" x1="1369.7" y1="173.9" x2="1290.4" y2="173.9"/>
                    </g>
                    <polyline class="cls-3" points="340.8 173.9 340.8 345.2 169.6 173.9 169.6 345"/>
                    <g>
                      <line class="cls-3" x1="1495.2" y1="233.2" x2="1520.8" y2="233.2"/>
                      <g>
                        <line class="cls-2" x1="1432.1" y1="360.3" x2="1432.1" y2="173.7"/>
                        <line class="cls-2" x1="1628.2" y1="377.5" x2="1543.8" y2="293.2"/>
                        <path class="cls-2" d="M1432.1,174.3h101c32.6,0,59.1,26.5,59.1,59.1h0c0,32.6-26.5,59.1-59.1,59.1h-101v-118.2Z"/>
                      </g>
                    </g>
                    <g>
                      <polyline class="cls-3" points="388.7 367.9 598.4 158.2 801 360.8"/>
                      <polyline class="cls-3" points="723.7 367.7 599 243 472.8 369.3"/>
                    </g>
                    <g>
                      <polyline class="cls-3" points="960.6 371.8 1174.2 158.2 1382.7 366.8"/>
                      <polyline class="cls-3" points="1298.1 366.3 1174.8 243 1047.6 370.2"/>
                    </g>
                    <g>
                      <polyline class="cls-3" points="671.9 145.4 886.7 360.3 1103.5 143.5"/>
                      <polyline class="cls-3" points="1020 142.8 887.3 275.5 754.7 142.9"/>
                    </g>
                  </g>
                  <g class="cls-4">
                    <g class="cls-4">
                      <g class="cls-4">
                        <g class="cls-4">
                          <g class="cls-4">
                            <text class="cls-5" transform="translate(660.4 289.7)"><tspan x="0" y="0">muhammed</tspan></text>
                          </g>
                        </g>
                      </g>
                    </g>
                  </g>
                </g>
              </g>
            </g>
          </g>
        </g>
      </g>
    </g>
  </g>
</svg>